<svg width="60" height="70" viewBox="0 0 60 70" fill="none" xmlns="http://www.w3.org/2000/svg">
<path id="gift-icon" d="M22.3242 9.40625L26.4023 17.5H26.25H17.8125C15.2227 17.5 13.125 15.0527 13.125 12.0312C13.125 9.00977 15.2227 6.5625 17.8125 6.5625H18.0703C19.8164 6.5625 21.4453 7.64258 22.3242 9.40625ZM7.5 12.0312C7.5 14 7.91016 15.8594 8.625 17.5H3.75C1.67578 17.5 0 19.4551 0 21.875V30.625C0 33.0449 1.67578 35 3.75 35H56.25C58.3242 35 60 33.0449 60 30.625V21.875C60 19.4551 58.3242 17.5 56.25 17.5H51.375C52.0898 15.8594 52.5 14 52.5 12.0312C52.5 5.38672 47.8828 0 42.1875 0H41.9297C38.1914 0 34.7227 2.31055 32.8242 6.07031L30 11.6895L27.1758 6.08398C25.2773 2.31055 21.8086 0 18.0703 0H17.8125C12.1172 0 7.5 5.38672 7.5 12.0312ZM46.875 12.0312C46.875 15.0527 44.7773 17.5 42.1875 17.5H33.75H33.5977L37.6758 9.40625C38.5664 7.64258 40.1836 6.5625 41.9297 6.5625H42.1875C44.7773 6.5625 46.875 9.00977 46.875 12.0312ZM3.75 39.375V63.4375C3.75 67.0605 6.26953 70 9.375 70H26.25V39.375H3.75ZM33.75 70H50.625C53.7305 70 56.25 67.0605 56.25 63.4375V39.375H33.75V70Z" fill="#7700AE"/>
</svg>
