<svg width="70" height="70" viewBox="0 0 70 70" fill="none" xmlns="http://www.w3.org/2000/svg">
<path id="info-icon" d="M35 70C44.2826 70 53.185 66.3125 59.7487 59.7487C66.3125 53.185 70 44.2826 70 35C70 25.7174 66.3125 16.815 59.7487 10.2513C53.185 3.68749 44.2826 0 35 0C25.7174 0 16.815 3.68749 10.2513 10.2513C3.68749 16.815 0 25.7174 0 35C0 44.2826 3.68749 53.185 10.2513 59.7487C16.815 66.3125 25.7174 70 35 70ZM29.5312 45.9375H32.8125V37.1875H29.5312C27.7129 37.1875 26.25 35.7246 26.25 33.9062C26.25 32.0879 27.7129 30.625 29.5312 30.625H36.0938C37.9121 30.625 39.375 32.0879 39.375 33.9062V45.9375H40.4688C42.2871 45.9375 43.75 47.4004 43.75 49.2188C43.75 51.0371 42.2871 52.5 40.4688 52.5H29.5312C27.7129 52.5 26.25 51.0371 26.25 49.2188C26.25 47.4004 27.7129 45.9375 29.5312 45.9375ZM35 17.5C36.1603 17.5 37.2731 17.9609 38.0936 18.7814C38.9141 19.6019 39.375 20.7147 39.375 21.875C39.375 23.0353 38.9141 24.1481 38.0936 24.9686C37.2731 25.7891 36.1603 26.25 35 26.25C33.8397 26.25 32.7269 25.7891 31.9064 24.9686C31.0859 24.1481 30.625 23.0353 30.625 21.875C30.625 20.7147 31.0859 19.6019 31.9064 18.7814C32.7269 17.9609 33.8397 17.5 35 17.5Z" fill="#7700AE"/>
</svg>
