<svg width="60" height="70" viewBox="0 0 60 70" fill="none" xmlns="http://www.w3.org/2000/svg">
<path id="location-icon" d="M33.7031 68.4271C41.7188 59.627 60 38.2983 60 26.3181C60 11.7883 46.5625 0 30 0C13.4375 0 0 11.7883 0 26.3181C0 38.2983 18.2812 59.627 26.2969 68.4271C28.2188 70.5243 31.7812 70.5243 33.7031 68.4271ZM30 17.5454C32.6522 17.5454 35.1957 18.4697 37.0711 20.1149C38.9464 21.7601 40 23.9914 40 26.3181C40 28.6448 38.9464 30.8761 37.0711 32.5213C35.1957 34.1665 32.6522 35.0908 30 35.0908C27.3478 35.0908 24.8043 34.1665 22.9289 32.5213C21.0536 30.8761 20 28.6448 20 26.3181C20 23.9914 21.0536 21.7601 22.9289 20.1149C24.8043 18.4697 27.3478 17.5454 30 17.5454Z" fill="#7700AE"/>
</svg>
