<svg width="70" height="70" viewBox="0 0 70 70" fill="none" xmlns="http://www.w3.org/2000/svg">
<path id="whatsapp-icon" d="M59.5156 10.1719C52.9688 3.60937 44.25 0 34.9844 0C15.8594 0 0.296875 15.5625 0.296875 34.6875C0.296875 40.7969 1.89062 46.7656 4.92188 52.0312L0 70L18.3906 65.1719C23.4531 67.9375 29.1562 69.3906 34.9688 69.3906H34.9844C54.0938 69.3906 70 53.8281 70 34.7031C70 25.4375 66.0625 16.7344 59.5156 10.1719ZM34.9844 63.5469C29.7969 63.5469 24.7187 62.1562 20.2969 59.5312L19.25 58.9062L8.34375 61.7656L11.25 51.125L10.5625 50.0312C7.67188 45.4375 6.15625 40.1406 6.15625 34.6875C6.15625 18.7969 19.0938 5.85938 35 5.85938C42.7031 5.85938 49.9375 8.85938 55.375 14.3125C60.8125 19.7656 64.1562 27 64.1406 34.7031C64.1406 50.6094 50.875 63.5469 34.9844 63.5469ZM50.7969 41.9531C49.9375 41.5156 45.6719 39.4219 44.875 39.1406C44.0781 38.8438 43.5 38.7031 42.9219 39.5781C42.3438 40.4531 40.6875 42.3906 40.1719 42.9844C39.6719 43.5625 39.1562 43.6406 38.2969 43.2031C33.2031 40.6562 29.8594 38.6562 26.5 32.8906C25.6094 31.3594 27.3906 31.4688 29.0469 28.1562C29.3281 27.5781 29.1875 27.0781 28.9688 26.6406C28.75 26.2031 27.0156 21.9375 26.2969 20.2031C25.5938 18.5156 24.875 18.75 24.3438 18.7188C23.8438 18.6875 23.2656 18.6875 22.6875 18.6875C22.1094 18.6875 21.1719 18.9062 20.375 19.7656C19.5781 20.6406 17.3438 22.7344 17.3438 27C17.3438 31.2656 20.4531 35.3906 20.875 35.9688C21.3125 36.5469 26.9844 45.2969 35.6875 49.0625C41.1875 51.4375 43.3438 51.6406 46.0938 51.2344C47.7656 50.9844 51.2188 49.1406 51.9375 47.1094C52.6562 45.0781 52.6562 43.3438 52.4375 42.9844C52.2344 42.5938 51.6562 42.375 50.7969 41.9531Z" fill="#7700AE"/>
</svg>
